<mxfile host="app.diagrams.net" agent="Mozilla/5.0 (Windows NT 10.0; Win64; x64) AppleWebKit/537.36 (KHTML, like Gecko) Chrome/129.0.0.0 Safari/537.36" version="24.7.16">
  <diagram id="R2lEEEUBdFMjLlhIrx00" name="Page-1">
    <mxGraphModel dx="1165" dy="728" grid="1" gridSize="10" guides="1" tooltips="1" connect="1" arrows="1" fold="1" page="1" pageScale="1" pageWidth="850" pageHeight="1100" math="0" shadow="0" extFonts="Permanent Marker^https://fonts.googleapis.com/css?family=Permanent+Marker">
      <root>
        <mxCell id="0" />
        <mxCell id="1" parent="0" />
        <mxCell id="F2KtdEp4NuPGQQRKZKPt-2" value="" style="edgeStyle=orthogonalEdgeStyle;rounded=0;orthogonalLoop=1;jettySize=auto;html=1;strokeColor=none;endArrow=none;" parent="1" source="F2KtdEp4NuPGQQRKZKPt-3" target="F2KtdEp4NuPGQQRKZKPt-6" edge="1">
          <mxGeometry relative="1" as="geometry" />
        </mxCell>
        <mxCell id="F2KtdEp4NuPGQQRKZKPt-3" value="Wallet" style="rounded=1;arcSize=10;whiteSpace=wrap;html=1;align=center;" parent="1" vertex="1">
          <mxGeometry x="120" y="210" width="100" height="40" as="geometry" />
        </mxCell>
        <mxCell id="F2KtdEp4NuPGQQRKZKPt-4" value="Currency" style="ellipse;whiteSpace=wrap;html=1;align=center;" parent="1" vertex="1">
          <mxGeometry x="120" y="30" width="100" height="40" as="geometry" />
        </mxCell>
        <mxCell id="F2KtdEp4NuPGQQRKZKPt-5" value="Current Balance" style="ellipse;whiteSpace=wrap;html=1;align=center;" parent="1" vertex="1">
          <mxGeometry x="270" y="80" width="100" height="40" as="geometry" />
        </mxCell>
        <mxCell id="F2KtdEp4NuPGQQRKZKPt-6" value="Wallet_ID" style="ellipse;whiteSpace=wrap;html=1;align=center;fontStyle=4;" parent="1" vertex="1">
          <mxGeometry x="270" y="190" width="100" height="40" as="geometry" />
        </mxCell>
        <mxCell id="F2KtdEp4NuPGQQRKZKPt-7" value="" style="endArrow=none;html=1;rounded=0;exitX=0.5;exitY=0;exitDx=0;exitDy=0;entryX=0.5;entryY=1;entryDx=0;entryDy=0;" parent="1" source="F2KtdEp4NuPGQQRKZKPt-3" target="F2KtdEp4NuPGQQRKZKPt-4" edge="1">
          <mxGeometry relative="1" as="geometry">
            <mxPoint x="70" y="99.5" as="sourcePoint" />
            <mxPoint x="230" y="99.5" as="targetPoint" />
          </mxGeometry>
        </mxCell>
        <mxCell id="MBuhAYIkGiriPWJrQsRO-2" value="" style="endArrow=none;html=1;rounded=0;exitX=1;exitY=0;exitDx=0;exitDy=0;entryX=0;entryY=1;entryDx=0;entryDy=0;" parent="1" source="F2KtdEp4NuPGQQRKZKPt-3" target="F2KtdEp4NuPGQQRKZKPt-5" edge="1">
          <mxGeometry relative="1" as="geometry">
            <mxPoint x="510" y="280" as="sourcePoint" />
            <mxPoint x="670" y="280" as="targetPoint" />
          </mxGeometry>
        </mxCell>
        <mxCell id="MBuhAYIkGiriPWJrQsRO-3" value="" style="endArrow=none;html=1;rounded=0;entryX=0;entryY=0.5;entryDx=0;entryDy=0;exitX=1;exitY=0.5;exitDx=0;exitDy=0;exitPerimeter=0;" parent="1" source="F2KtdEp4NuPGQQRKZKPt-3" target="F2KtdEp4NuPGQQRKZKPt-6" edge="1">
          <mxGeometry relative="1" as="geometry">
            <mxPoint x="230" y="230" as="sourcePoint" />
            <mxPoint x="370" y="230" as="targetPoint" />
          </mxGeometry>
        </mxCell>
        <mxCell id="nOJYXH8r22cCcYCmpwuw-1" value="Customer&lt;div&gt;Prof&lt;span style=&quot;background-color: initial;&quot;&gt;ile&lt;/span&gt;&lt;/div&gt;" style="rounded=1;arcSize=10;whiteSpace=wrap;html=1;align=center;" vertex="1" parent="1">
          <mxGeometry x="620" y="210" width="100" height="40" as="geometry" />
        </mxCell>
        <mxCell id="nOJYXH8r22cCcYCmpwuw-3" value="Customer Account" style="rounded=1;arcSize=10;whiteSpace=wrap;html=1;align=center;" vertex="1" parent="1">
          <mxGeometry x="610" y="420" width="100" height="40" as="geometry" />
        </mxCell>
        <object label="National ID" id="YVMlVOvHzLtNW060m_QN-1">
          <mxCell style="ellipse;whiteSpace=wrap;html=1;align=center;" vertex="1" parent="1">
            <mxGeometry x="530" y="270" width="100" height="40" as="geometry" />
          </mxCell>
        </object>
        <mxCell id="nOJYXH8r22cCcYCmpwuw-6" value="Owns" style="shape=rhombus;perimeter=rhombusPerimeter;whiteSpace=wrap;html=1;align=center;" vertex="1" parent="1">
          <mxGeometry x="350" y="310" width="120" height="60" as="geometry" />
        </mxCell>
        <mxCell id="YVMlVOvHzLtNW060m_QN-2" value="Name" style="ellipse;whiteSpace=wrap;html=1;align=center;" vertex="1" parent="1">
          <mxGeometry x="660" y="270" width="100" height="40" as="geometry" />
        </mxCell>
        <mxCell id="nOJYXH8r22cCcYCmpwuw-7" value="" style="edgeStyle=entityRelationEdgeStyle;fontSize=12;html=1;endArrow=ERmandOne;rounded=0;entryX=0;entryY=0.5;entryDx=0;entryDy=0;exitX=1;exitY=1;exitDx=0;exitDy=0;" edge="1" parent="1" source="nOJYXH8r22cCcYCmpwuw-6" target="nOJYXH8r22cCcYCmpwuw-3">
          <mxGeometry width="100" height="100" relative="1" as="geometry">
            <mxPoint x="380" y="330" as="sourcePoint" />
            <mxPoint x="480" y="230" as="targetPoint" />
          </mxGeometry>
        </mxCell>
        <mxCell id="YVMlVOvHzLtNW060m_QN-3" value="" style="line;strokeWidth=1;rotatable=0;dashed=0;labelPosition=right;align=left;verticalAlign=middle;spacingTop=0;spacingLeft=6;points=[];portConstraint=eastwest;" vertex="1" parent="1">
          <mxGeometry x="550" y="290" width="60" height="10" as="geometry" />
        </mxCell>
        <mxCell id="nOJYXH8r22cCcYCmpwuw-9" value="Transfer Transaction" style="rounded=1;arcSize=10;whiteSpace=wrap;html=1;align=center;" vertex="1" parent="1">
          <mxGeometry x="110" y="430" width="100" height="40" as="geometry" />
        </mxCell>
        <mxCell id="YVMlVOvHzLtNW060m_QN-7" value="" style="endArrow=none;html=1;rounded=0;entryX=0.5;entryY=0;entryDx=0;entryDy=0;exitX=0.5;exitY=1;exitDx=0;exitDy=0;" edge="1" parent="1" source="YVMlVOvHzLtNW060m_QN-10" target="nOJYXH8r22cCcYCmpwuw-1">
          <mxGeometry relative="1" as="geometry">
            <mxPoint x="600" y="180" as="sourcePoint" />
            <mxPoint x="780" y="179.5" as="targetPoint" />
          </mxGeometry>
        </mxCell>
        <mxCell id="nOJYXH8r22cCcYCmpwuw-10" value="" style="edgeStyle=entityRelationEdgeStyle;fontSize=12;html=1;endArrow=ERmandOne;rounded=0;entryX=1;entryY=1;entryDx=0;entryDy=0;exitX=0;exitY=0.5;exitDx=0;exitDy=0;" edge="1" parent="1" source="nOJYXH8r22cCcYCmpwuw-6" target="F2KtdEp4NuPGQQRKZKPt-3">
          <mxGeometry width="100" height="100" relative="1" as="geometry">
            <mxPoint x="380" y="330" as="sourcePoint" />
            <mxPoint x="480" y="230" as="targetPoint" />
          </mxGeometry>
        </mxCell>
        <mxCell id="YVMlVOvHzLtNW060m_QN-8" value="" style="endArrow=none;html=1;rounded=0;exitX=0;exitY=0.75;exitDx=0;exitDy=0;" edge="1" parent="1" source="nOJYXH8r22cCcYCmpwuw-1">
          <mxGeometry relative="1" as="geometry">
            <mxPoint x="420" y="270" as="sourcePoint" />
            <mxPoint x="580" y="270" as="targetPoint" />
          </mxGeometry>
        </mxCell>
        <mxCell id="nOJYXH8r22cCcYCmpwuw-12" value="" style="edgeStyle=elbowEdgeStyle;fontSize=12;html=1;endArrow=ERmany;startArrow=ERmany;rounded=0;elbow=vertical;exitX=0.25;exitY=0;exitDx=0;exitDy=0;entryX=0.25;entryY=1;entryDx=0;entryDy=0;" edge="1" parent="1" source="nOJYXH8r22cCcYCmpwuw-9" target="F2KtdEp4NuPGQQRKZKPt-3">
          <mxGeometry width="100" height="100" relative="1" as="geometry">
            <mxPoint x="50" y="410" as="sourcePoint" />
            <mxPoint x="120" y="230" as="targetPoint" />
          </mxGeometry>
        </mxCell>
        <mxCell id="YVMlVOvHzLtNW060m_QN-10" value="Email" style="ellipse;whiteSpace=wrap;html=1;align=center;" vertex="1" parent="1">
          <mxGeometry x="500" y="150" width="100" height="40" as="geometry" />
        </mxCell>
        <mxCell id="nOJYXH8r22cCcYCmpwuw-13" value="Amount transferred" style="ellipse;whiteSpace=wrap;html=1;align=center;" vertex="1" parent="1">
          <mxGeometry x="250" y="430" width="100" height="40" as="geometry" />
        </mxCell>
        <mxCell id="YVMlVOvHzLtNW060m_QN-14" value="" style="endArrow=none;html=1;rounded=0;entryX=0.5;entryY=0;entryDx=0;entryDy=0;exitX=1;exitY=0;exitDx=0;exitDy=0;" edge="1" parent="1" source="YVMlVOvHzLtNW060m_QN-2" target="YVMlVOvHzLtNW060m_QN-17">
          <mxGeometry relative="1" as="geometry">
            <mxPoint x="720" y="220" as="sourcePoint" />
            <mxPoint x="790" y="240" as="targetPoint" />
          </mxGeometry>
        </mxCell>
        <mxCell id="nOJYXH8r22cCcYCmpwuw-14" value="" style="endArrow=none;html=1;rounded=0;" edge="1" parent="1">
          <mxGeometry relative="1" as="geometry">
            <mxPoint x="210" y="450" as="sourcePoint" />
            <mxPoint x="250" y="450" as="targetPoint" />
          </mxGeometry>
        </mxCell>
        <mxCell id="YVMlVOvHzLtNW060m_QN-15" value="" style="endArrow=none;html=1;rounded=0;entryX=0.5;entryY=0;entryDx=0;entryDy=0;" edge="1" parent="1" target="YVMlVOvHzLtNW060m_QN-2">
          <mxGeometry relative="1" as="geometry">
            <mxPoint x="670" y="249" as="sourcePoint" />
            <mxPoint x="830" y="249" as="targetPoint" />
          </mxGeometry>
        </mxCell>
        <mxCell id="nOJYXH8r22cCcYCmpwuw-15" value="Date of transaction" style="ellipse;whiteSpace=wrap;html=1;align=center;" vertex="1" parent="1">
          <mxGeometry x="90" y="500" width="100" height="40" as="geometry" />
        </mxCell>
        <mxCell id="YVMlVOvHzLtNW060m_QN-17" value="Last Name" style="ellipse;whiteSpace=wrap;html=1;align=center;" vertex="1" parent="1">
          <mxGeometry x="740" y="240" width="100" height="40" as="geometry" />
        </mxCell>
        <mxCell id="nOJYXH8r22cCcYCmpwuw-16" value="" style="endArrow=none;html=1;rounded=0;exitX=0.25;exitY=1;exitDx=0;exitDy=0;entryX=0.5;entryY=0;entryDx=0;entryDy=0;" edge="1" parent="1" source="nOJYXH8r22cCcYCmpwuw-9" target="nOJYXH8r22cCcYCmpwuw-15">
          <mxGeometry relative="1" as="geometry">
            <mxPoint x="110" y="530" as="sourcePoint" />
            <mxPoint x="150" y="530" as="targetPoint" />
          </mxGeometry>
        </mxCell>
        <mxCell id="nOJYXH8r22cCcYCmpwuw-18" value="Raises" style="shape=rhombus;perimeter=rhombusPerimeter;whiteSpace=wrap;html=1;align=center;" vertex="1" parent="1">
          <mxGeometry x="600" y="550" width="120" height="60" as="geometry" />
        </mxCell>
        <mxCell id="YVMlVOvHzLtNW060m_QN-18" value="Address" style="ellipse;whiteSpace=wrap;html=1;align=center;" vertex="1" parent="1">
          <mxGeometry x="620" y="140" width="100" height="40" as="geometry" />
        </mxCell>
        <mxCell id="nOJYXH8r22cCcYCmpwuw-19" value="Technical support ticket" style="shape=ext;margin=3;double=1;whiteSpace=wrap;html=1;align=center;" vertex="1" parent="1">
          <mxGeometry x="610" y="690" width="100" height="40" as="geometry" />
        </mxCell>
        <mxCell id="YVMlVOvHzLtNW060m_QN-19" value="Date of Birth" style="ellipse;whiteSpace=wrap;html=1;align=center;" vertex="1" parent="1">
          <mxGeometry x="730" y="150" width="100" height="40" as="geometry" />
        </mxCell>
        <mxCell id="nOJYXH8r22cCcYCmpwuw-20" value="" style="fontSize=12;html=1;endArrow=ERmandOne;rounded=0;entryX=0.5;entryY=1;entryDx=0;entryDy=0;exitX=0.5;exitY=0;exitDx=0;exitDy=0;" edge="1" parent="1" source="nOJYXH8r22cCcYCmpwuw-18" target="nOJYXH8r22cCcYCmpwuw-3">
          <mxGeometry width="100" height="100" relative="1" as="geometry">
            <mxPoint x="490" y="630" as="sourcePoint" />
            <mxPoint x="590" y="530" as="targetPoint" />
          </mxGeometry>
        </mxCell>
        <mxCell id="YVMlVOvHzLtNW060m_QN-20" value="" style="endArrow=none;html=1;rounded=0;fontFamily=Helvetica;fontSize=12;fontColor=default;fontStyle=4;exitX=0.5;exitY=1;exitDx=0;exitDy=0;" edge="1" parent="1" source="YVMlVOvHzLtNW060m_QN-18">
          <mxGeometry relative="1" as="geometry">
            <mxPoint x="520" y="209" as="sourcePoint" />
            <mxPoint x="680" y="209" as="targetPoint" />
          </mxGeometry>
        </mxCell>
        <mxCell id="nOJYXH8r22cCcYCmpwuw-21" value="" style="fontSize=12;html=1;endArrow=ERzeroToMany;endFill=1;rounded=0;entryX=0.5;entryY=0;entryDx=0;entryDy=0;exitX=0.5;exitY=1;exitDx=0;exitDy=0;" edge="1" parent="1" source="nOJYXH8r22cCcYCmpwuw-18" target="nOJYXH8r22cCcYCmpwuw-19">
          <mxGeometry width="100" height="100" relative="1" as="geometry">
            <mxPoint x="470" y="580" as="sourcePoint" />
            <mxPoint x="480" y="370" as="targetPoint" />
          </mxGeometry>
        </mxCell>
        <mxCell id="YVMlVOvHzLtNW060m_QN-21" value="" style="endArrow=none;html=1;rounded=0;fontFamily=Helvetica;fontSize=12;fontColor=default;fontStyle=4;entryX=0.5;entryY=1;entryDx=0;entryDy=0;exitX=0.75;exitY=0;exitDx=0;exitDy=0;" edge="1" parent="1" source="nOJYXH8r22cCcYCmpwuw-1" target="YVMlVOvHzLtNW060m_QN-19">
          <mxGeometry relative="1" as="geometry">
            <mxPoint x="680" y="209" as="sourcePoint" />
            <mxPoint x="840" y="209" as="targetPoint" />
          </mxGeometry>
        </mxCell>
        <mxCell id="nOJYXH8r22cCcYCmpwuw-22" value="Ticket_ID" style="ellipse;whiteSpace=wrap;html=1;align=center;fontStyle=4;" vertex="1" parent="1">
          <mxGeometry x="425" y="690" width="100" height="40" as="geometry" />
        </mxCell>
        <mxCell id="YVMlVOvHzLtNW060m_QN-22" value="First Name" style="ellipse;whiteSpace=wrap;html=1;align=center;" vertex="1" parent="1">
          <mxGeometry x="700" y="320" width="100" height="40" as="geometry" />
        </mxCell>
        <mxCell id="nOJYXH8r22cCcYCmpwuw-23" value="Issue description" style="ellipse;whiteSpace=wrap;html=1;align=center;" vertex="1" parent="1">
          <mxGeometry x="525" y="790" width="100" height="40" as="geometry" />
        </mxCell>
        <mxCell id="YVMlVOvHzLtNW060m_QN-23" value="" style="endArrow=none;html=1;rounded=0;fontFamily=Helvetica;fontSize=12;fontColor=default;fontStyle=4;exitX=0.5;exitY=1;exitDx=0;exitDy=0;" edge="1" parent="1" source="YVMlVOvHzLtNW060m_QN-2">
          <mxGeometry relative="1" as="geometry">
            <mxPoint x="580" y="320" as="sourcePoint" />
            <mxPoint x="740" y="320" as="targetPoint" />
          </mxGeometry>
        </mxCell>
        <mxCell id="nOJYXH8r22cCcYCmpwuw-24" value="Status" style="ellipse;whiteSpace=wrap;html=1;align=center;" vertex="1" parent="1">
          <mxGeometry x="750" y="690" width="100" height="40" as="geometry" />
        </mxCell>
        <mxCell id="nOJYXH8r22cCcYCmpwuw-25" value="Priority level" style="ellipse;whiteSpace=wrap;html=1;align=center;" vertex="1" parent="1">
          <mxGeometry x="700" y="790" width="100" height="40" as="geometry" />
        </mxCell>
        <mxCell id="nOJYXH8r22cCcYCmpwuw-26" value="" style="endArrow=none;html=1;rounded=0;" edge="1" parent="1">
          <mxGeometry relative="1" as="geometry">
            <mxPoint x="520" y="710" as="sourcePoint" />
            <mxPoint x="610" y="710" as="targetPoint" />
          </mxGeometry>
        </mxCell>
        <mxCell id="nOJYXH8r22cCcYCmpwuw-27" value="" style="endArrow=none;html=1;rounded=0;exitX=1;exitY=0.5;exitDx=0;exitDy=0;" edge="1" parent="1" source="nOJYXH8r22cCcYCmpwuw-19">
          <mxGeometry relative="1" as="geometry">
            <mxPoint x="720" y="709.33" as="sourcePoint" />
            <mxPoint x="750" y="709" as="targetPoint" />
          </mxGeometry>
        </mxCell>
        <mxCell id="nOJYXH8r22cCcYCmpwuw-28" value="" style="endArrow=none;html=1;rounded=0;entryX=0;entryY=1;entryDx=0;entryDy=0;" edge="1" parent="1" target="nOJYXH8r22cCcYCmpwuw-19">
          <mxGeometry relative="1" as="geometry">
            <mxPoint x="570" y="790" as="sourcePoint" />
            <mxPoint x="730" y="790" as="targetPoint" />
          </mxGeometry>
        </mxCell>
        <mxCell id="nOJYXH8r22cCcYCmpwuw-29" value="" style="endArrow=none;html=1;rounded=0;entryX=1;entryY=1;entryDx=0;entryDy=0;exitX=0.5;exitY=0;exitDx=0;exitDy=0;" edge="1" parent="1" source="nOJYXH8r22cCcYCmpwuw-25" target="nOJYXH8r22cCcYCmpwuw-19">
          <mxGeometry relative="1" as="geometry">
            <mxPoint x="580" y="800" as="sourcePoint" />
            <mxPoint x="620" y="740" as="targetPoint" />
          </mxGeometry>
        </mxCell>
      </root>
    </mxGraphModel>
  </diagram>
</mxfile>
